<?xml version="1.0" encoding="UTF-8"?>
<svg xmlns="http://www.w3.org/2000/svg" version="1.1" width="300" height="300" viewBox="0 0 300 300"><rect x="0" y="0" width="300" height="300" fill="#ffffff"/><g transform="scale(12)"><g transform="translate(0,0)"><path fill-rule="evenodd" d="M9 0L9 1L10 1L10 2L8 2L8 3L9 3L9 4L10 4L10 5L9 5L9 6L8 6L8 8L4 8L4 9L3 9L3 8L0 8L0 9L1 9L1 10L2 10L2 12L1 12L1 11L0 11L0 12L1 12L1 13L2 13L2 14L5 14L5 15L4 15L4 16L3 16L3 15L1 15L1 14L0 14L0 15L1 15L1 16L0 16L0 17L1 17L1 16L3 16L3 17L7 17L7 16L8 16L8 15L9 15L9 16L10 16L10 17L8 17L8 21L9 21L9 22L8 22L8 25L10 25L10 24L11 24L11 25L12 25L12 24L14 24L14 25L17 25L17 24L18 24L18 25L20 25L20 23L23 23L23 25L25 25L25 24L24 24L24 23L25 23L25 22L24 22L24 23L23 23L23 21L25 21L25 20L23 20L23 21L21 21L21 19L22 19L22 18L21 18L21 17L22 17L22 16L21 16L21 14L22 14L22 15L25 15L25 9L23 9L23 8L22 8L22 9L21 9L21 10L20 10L20 9L19 9L19 8L16 8L16 7L17 7L17 5L16 5L16 4L15 4L15 2L16 2L16 1L17 1L17 0L12 0L12 1L10 1L10 0ZM13 1L13 3L12 3L12 2L11 2L11 3L12 3L12 4L11 4L11 5L10 5L10 6L9 6L9 7L10 7L10 6L11 6L11 8L12 8L12 10L10 10L10 8L9 8L9 9L4 9L4 10L3 10L3 9L2 9L2 10L3 10L3 11L6 11L6 12L7 12L7 13L6 13L6 14L7 14L7 13L8 13L8 14L9 14L9 13L10 13L10 14L11 14L11 13L12 13L12 12L13 12L13 10L14 10L14 11L16 11L16 12L14 12L14 13L13 13L13 15L17 15L17 14L18 14L18 9L17 9L17 10L16 10L16 9L15 9L15 8L14 8L14 9L13 9L13 8L12 8L12 6L13 6L13 7L14 7L14 6L15 6L15 7L16 7L16 6L15 6L15 5L14 5L14 1ZM22 9L22 11L21 11L21 12L19 12L19 16L20 16L20 14L21 14L21 13L23 13L23 14L24 14L24 12L23 12L23 9ZM6 10L6 11L7 11L7 12L8 12L8 13L9 13L9 12L8 12L8 10ZM9 10L9 11L10 11L10 10ZM11 11L11 12L12 12L12 11ZM2 12L2 13L5 13L5 12ZM16 12L16 14L17 14L17 12ZM5 15L5 16L7 16L7 15ZM11 15L11 16L12 16L12 18L11 18L11 19L10 19L10 20L11 20L11 21L12 21L12 20L13 20L13 21L14 21L14 22L13 22L13 23L14 23L14 22L16 22L16 19L15 19L15 17L14 17L14 16L12 16L12 15ZM24 16L24 17L23 17L23 19L25 19L25 16ZM17 17L17 20L20 20L20 17ZM13 18L13 19L14 19L14 18ZM18 18L18 19L19 19L19 18ZM11 19L11 20L12 20L12 19ZM17 21L17 23L18 23L18 24L19 24L19 23L18 23L18 22L19 22L19 21ZM9 22L9 23L10 23L10 22ZM11 23L11 24L12 24L12 23ZM0 0L0 7L7 7L7 0ZM1 1L1 6L6 6L6 1ZM2 2L2 5L5 5L5 2ZM18 0L18 7L25 7L25 0ZM19 1L19 6L24 6L24 1ZM20 2L20 5L23 5L23 2ZM0 18L0 25L7 25L7 18ZM1 19L1 24L6 24L6 19ZM2 20L2 23L5 23L5 20Z" fill="#000000"/></g></g></svg>
